<?xml version="1.0"?>
<svg width="512" height="512" xmlns="http://www.w3.org/2000/svg" xmlns:svg="http://www.w3.org/2000/svg" class="ionicon">
 <g class="layer">
  <title>Layer 1</title>
  <path d="m90.61,306.85a16.07,16.07 0 0 0 13.39,-13.25c12.09,-73.43 65.63,-117.6 128,-117.6c57.93,0 96.62,37.75 112.2,77.74a15.84,15.84 0 0 0 12.2,9.87c50,8.15 91.6,41.54 91.6,99.59c0,59.4 -48.6,100.8 -108,100.8l-234,0c-49.5,0 -90,-24.7 -90,-79.2c0,-48.47 38.67,-72.22 74.61,-77.95z" fill="#ffffff" id="svg_1" stroke="#ffffff" stroke-linejoin="round" stroke-width="32"/>
  <path d="m384.8,271.4a80,80 0 1 0 -123.55,-92m202.75,28.6l32,0m-160,-160l0,32m-113.14,14.86l22.63,22.63m203.65,-22.63l-22.63,22.63" fill="#ffda16" id="svg_2" stroke="#ffda16" stroke-linecap="round" stroke-linejoin="round" stroke-width="32"/>
 </g>
</svg>