<svg width="152" height="53" viewBox="0 0 152 53" fill="none" xmlns="http://www.w3.org/2000/svg">
<path d="M75.7385 39.0367H72.2628L71.3939 34.2876H66.4982L65.6716 39.0367H62.1747L67.3671 15.0259H70.5885L75.7173 39.0367H75.7385ZM70.7793 30.8644L68.9778 20.8117L67.1764 30.8644H70.8005H70.7793Z" fill="black"/>
<path d="M87.8611 32.6484C87.7975 34.9144 87.2253 36.6261 86.102 37.7832C85.1483 38.7957 83.9403 39.302 82.4567 39.302C80.7401 39.302 79.3837 38.6269 78.3664 37.2528C77.7094 36.3609 77.2855 35.2037 77.116 33.8055C76.9252 32.4073 76.8405 30.1412 76.8405 27.0314C76.8405 23.9215 76.9252 21.6796 77.116 20.2572C77.3067 18.859 77.7306 17.7019 78.3664 16.8099C79.3837 15.4358 80.7401 14.7608 82.4567 14.7608C83.9615 14.7608 85.1907 15.2671 86.1656 16.3037C87.2253 17.4126 87.7975 19.1001 87.8611 21.3662H84.5337C84.4913 20.2814 84.3218 19.5099 84.0251 19.0278C83.7072 18.4492 83.1773 18.1599 82.4567 18.1599C81.7362 18.1599 81.2275 18.4733 80.8884 19.076C80.5917 19.6064 80.401 20.4742 80.295 21.6555C80.189 22.8367 80.1466 24.6207 80.1466 27.0314C80.1466 29.4421 80.189 31.226 80.295 32.4073C80.401 33.5885 80.5917 34.4564 80.8884 34.9868C81.2275 35.5894 81.7574 35.9028 82.4567 35.9028C83.1561 35.9028 83.7072 35.6135 84.0251 35.035C84.3218 34.5287 84.4913 33.7332 84.5337 32.6725H87.8611V32.6484Z" fill="black"/>
<path d="M99.5177 18.425H93.965V25.2473H98.7335V28.6465H93.965V39.0367H90.6376V15.0018H99.4965V18.4009L99.5177 18.425Z" fill="black"/>
<path d="M111.11 39.0365H101.828V35.999L107.105 24.3311C107.677 23.1258 107.974 21.6793 107.974 20.04C107.974 19.365 107.847 18.8588 107.55 18.4972C107.274 18.1356 106.914 17.9668 106.448 17.9668C105.982 17.9668 105.621 18.1356 105.325 18.4972C105.028 18.8588 104.879 19.365 104.879 20.0159V21.5588H101.743V20.1365C101.743 18.4249 102.167 17.099 103.057 16.1588C103.926 15.2186 105.07 14.7365 106.469 14.7365C107.868 14.7365 108.927 15.1704 109.733 16.0141C110.665 17.0025 111.132 18.3766 111.132 20.1606C111.132 21.9445 110.75 23.7284 109.966 25.4159L105.197 35.8062H111.132V39.0124L111.11 39.0365Z" fill="black"/>
<path d="M122.979 39.0367H114.12V15.0018H117.447V35.6134H123V39.0126L122.979 39.0367Z" fill="black"/>
<path d="M42.1043 28.574C41.7228 28.9838 41.3625 29.3454 41.0022 29.707C39.667 31.057 38.3318 32.4311 36.9967 33.7811C36.7211 34.0463 36.594 34.2874 36.7211 34.6972C36.8907 35.2999 37.0178 35.9508 37.145 36.5776C37.4205 37.7829 37.3357 38.0481 36.2549 38.8196C36.0641 38.4097 35.8522 37.9999 35.6615 37.6142C35.3436 36.9392 35.174 35.9749 34.6866 35.6615C34.2839 35.3963 33.4997 35.9026 32.8851 36.0713C32.7791 36.0954 32.6944 36.0713 32.4189 36.1195C32.5884 35.4445 32.6944 34.8419 32.9063 34.3115C33.1182 33.757 32.9911 33.4919 32.5248 33.2749C31.8466 32.9374 31.2108 32.5035 30.5538 32.1419C30.0664 31.8767 30.13 31.6356 30.4479 31.2258C30.8717 30.6713 31.338 30.5267 31.9526 30.7436C32.6732 31.0088 33.4997 31.4668 34.1355 31.274C34.7289 31.0811 35.1528 30.141 35.6403 29.5142C36.7635 28.0918 37.908 26.6695 39.0948 25.1749C38.8617 25.0061 38.6921 24.8615 38.5014 24.7409C35.1528 22.499 31.8254 20.257 28.4769 18.015C27.841 17.5811 27.841 17.4606 28.4769 17.0266C28.7736 16.8338 29.0703 16.6409 29.3458 16.4239C29.812 16.0623 30.2995 16.0382 30.8505 16.207C34.7289 17.4123 38.6074 18.6177 42.4858 19.8472C43.058 20.04 43.4395 19.9436 43.8422 19.4132C45.0502 17.8704 46.3218 16.3998 47.5934 14.9293C48.7591 13.5552 50.2214 12.9766 51.8745 13.0007C52.6163 13.0007 52.807 13.2418 52.8282 14.0855C52.8494 15.99 52.3196 17.6775 51.0903 19.0034C49.7763 20.4499 48.4412 21.8963 47.0848 23.3186C46.6821 23.7284 46.6397 24.09 46.7881 24.6445C47.8689 29.1043 48.9286 33.5642 50.0095 38.0481C50.2002 38.7954 49.6068 40.724 49.0134 41.1338C48.9074 41.2062 48.5683 40.9892 48.4624 40.8204C47.8689 39.7356 47.3179 38.6508 46.7457 37.5419C45.3045 34.7695 43.8845 31.9972 42.4434 29.2249C42.3586 29.032 42.2315 28.8633 42.1043 28.6222V28.574Z" fill="black"/>
<path d="M120.764 1H31.2357C14.537 1 1 12.4167 1 26.5C1 40.5833 14.537 52 31.2357 52H120.764C137.463 52 151 40.5833 151 26.5C151 12.4167 137.463 1 120.764 1Z" stroke="black" stroke-width="2" stroke-miterlimit="10"/>
</svg>
