<svg width="153" height="53" viewBox="0 0 153 53" fill="none" xmlns="http://www.w3.org/2000/svg">
<path d="M76.0587 39.0367H72.583L71.7141 34.2875H66.8184L65.9918 39.0367H62.4949L67.6873 15.0259H70.9087L76.0375 39.0367H76.0587ZM71.0994 30.8643L69.298 20.8116L67.4965 30.8643H71.1206H71.0994Z" fill="white"/>
<path d="M88.1813 32.6483C88.1177 34.9144 87.5455 36.626 86.4222 37.7831C85.4685 38.7956 84.2605 39.3019 82.7769 39.3019C81.0603 39.3019 79.7039 38.6269 78.6866 37.2528C78.0296 36.3608 77.6057 35.2037 77.4362 33.8054C77.2454 32.4072 77.1606 30.1411 77.1606 27.0313C77.1606 23.9215 77.2454 21.6795 77.4362 20.2572C77.6269 18.859 78.0508 17.7018 78.6866 16.8099C79.7039 15.4357 81.0603 14.7607 82.7769 14.7607C84.2817 14.7607 85.5109 15.267 86.4858 16.3036C87.5455 17.4125 88.1177 19.1 88.1813 21.3661H84.8539C84.8115 20.2813 84.642 19.5099 84.3452 19.0277C84.0273 18.4491 83.4975 18.1599 82.7769 18.1599C82.0564 18.1599 81.5477 18.4733 81.2086 19.0759C80.9119 19.6063 80.7212 20.4742 80.6152 21.6554C80.5092 22.8367 80.4668 24.6206 80.4668 27.0313C80.4668 29.442 80.5092 31.226 80.6152 32.4072C80.7212 33.5885 80.9119 34.4563 81.2086 34.9867C81.5477 35.5894 82.0775 35.9028 82.7769 35.9028C83.4763 35.9028 84.0273 35.6135 84.3452 35.0349C84.642 34.5287 84.8115 33.7331 84.8539 32.6724H88.1813V32.6483Z" fill="white"/>
<path d="M99.8378 18.4249H94.2851V25.2473H99.0537V28.6464H94.2851V39.0366H90.9578V15.0017H99.8167V18.4008L99.8378 18.4249Z" fill="white"/>
<path d="M111.431 39.0365H102.148V35.999L107.425 24.3311C107.997 23.1258 108.294 21.6793 108.294 20.04C108.294 19.365 108.167 18.8588 107.87 18.4972C107.595 18.1356 107.234 17.9668 106.768 17.9668C106.302 17.9668 105.941 18.1356 105.645 18.4972C105.348 18.8588 105.2 19.365 105.2 20.0159V21.5588H102.063V20.1365C102.063 18.4249 102.487 17.099 103.377 16.1588C104.246 15.2186 105.39 14.7365 106.789 14.7365C108.188 14.7365 109.248 15.1704 110.053 16.0141C110.985 17.0025 111.452 18.3766 111.452 20.1606C111.452 21.9445 111.07 23.7284 110.286 25.4159L105.518 35.8062H111.452V39.0124L111.431 39.0365Z" fill="white"/>
<path d="M123.299 39.0366H114.44V15.0017H117.768V35.6134H123.32V39.0125L123.299 39.0366Z" fill="white"/>
<path d="M42.4244 28.574C42.0429 28.9838 41.6826 29.3454 41.3223 29.707C39.9871 31.057 38.6519 32.4311 37.3167 33.7811C37.0412 34.0463 36.914 34.2874 37.0412 34.6972C37.2108 35.2999 37.3379 35.9508 37.4651 36.5776C37.7406 37.7829 37.6558 38.0481 36.5749 38.8196C36.3842 38.4097 36.1723 37.9999 35.9815 37.6142C35.6636 36.9392 35.4941 35.9749 35.0066 35.6615C34.6039 35.3963 33.8198 35.9026 33.2052 36.0713C33.0992 36.0954 33.0144 36.0713 32.7389 36.1195C32.9085 35.4445 33.0144 34.8419 33.2264 34.3115C33.4383 33.757 33.3111 33.4919 32.8449 33.2749C32.1667 32.9374 31.5309 32.5035 30.8739 32.1419C30.3864 31.8767 30.45 31.6356 30.7679 31.2258C31.1918 30.6713 31.658 30.5267 32.2727 30.7436C32.9932 31.0088 33.8198 31.4668 34.4556 31.274C35.049 31.0811 35.4729 30.141 35.9603 29.5142C37.0836 28.0918 38.228 26.6695 39.4149 25.1749C39.1818 25.0061 39.0122 24.8615 38.8215 24.7409C35.4729 22.499 32.1455 20.257 28.7969 18.015C28.1611 17.5811 28.1611 17.4606 28.7969 17.0266C29.0936 16.8338 29.3903 16.6409 29.6659 16.4239C30.1321 16.0623 30.6196 16.0382 31.1706 16.207C35.049 17.4123 38.9274 18.6177 42.8058 19.8472C43.3781 20.04 43.7596 19.9436 44.1622 19.4132C45.3703 17.8704 46.6419 16.3998 47.9135 14.9293C49.0791 13.5552 50.5415 12.9766 52.1946 13.0007C52.9364 13.0007 53.1271 13.2418 53.1483 14.0855C53.1695 15.99 52.6396 17.6775 51.4104 19.0034C50.0964 20.4499 48.7612 21.8963 47.4048 23.3186C47.0022 23.7284 46.9598 24.09 47.1081 24.6445C48.189 29.1043 49.2487 33.5642 50.3295 38.0481C50.5203 38.7954 49.9269 40.724 49.3335 41.1338C49.2275 41.2062 48.8884 40.9892 48.7824 40.8204C48.189 39.7356 47.638 38.6508 47.0657 37.5419C45.6246 34.7695 44.2046 31.9972 42.7635 29.2249C42.6787 29.032 42.5515 28.8633 42.4244 28.6222V28.574Z" fill="white"/>
<path d="M121.084 1H31.5557C14.857 1 1.32007 12.4167 1.32007 26.5C1.32007 40.5833 14.857 52 31.5557 52H121.084C137.783 52 151.32 40.5833 151.32 26.5C151.32 12.4167 137.783 1 121.084 1Z" stroke="white" stroke-width="2" stroke-miterlimit="10"/>
</svg>
