<svg width="42" height="26" viewBox="0 0 42 26" fill="none" xmlns="http://www.w3.org/2000/svg">
<path d="M32.4571 9.93312H30.0523C29.3383 7.62442 27.8628 5.52921 25.7936 3.88557C23.7244 2.24192 21.1445 1.11576 18.3469 0.635033C15.5493 0.154309 12.6463 0.338302 9.96776 1.16611C7.28919 1.99391 4.94246 3.43233 3.19423 5.31792C1.446 7.20352 0.36637 9.46067 0.0780168 11.8329C-0.210336 14.2051 0.304151 16.5973 1.56302 18.7377C2.82188 20.878 4.77465 22.6806 7.19943 23.9408C9.6242 25.2009 12.4238 25.8679 15.28 25.8662H32.4571C34.9881 25.8662 37.4153 25.0268 39.205 23.5328C40.9946 22.0388 42 20.0125 42 17.8996C42 15.7868 40.9946 13.7605 39.205 12.2665C37.4153 10.7724 34.9881 9.93312 32.4571 9.93312Z" fill="white"/>
</svg>
